<?xml version="1.0" standalone="no"?><!DOCTYPE svg PUBLIC "-//W3C//DTD SVG 1.1//EN" "http://www.w3.org/Graphics/SVG/1.1/DTD/svg11.dtd"><svg t="1683338983593" class="icon" viewBox="0 0 1254 1024" version="1.1" xmlns="http://www.w3.org/2000/svg" p-id="75663" xmlns:xlink="http://www.w3.org/1999/xlink" width="156.75" height="128"><path d="M 1062.61 0 H 191.534 A 191.745 191.745 0 0 0 0 191.534 v 640.931 a 191.745 191.745 0 0 0 191.534 191.534 h 871.079 a 191.745 191.745 0 0 0 191.534 -191.534 V 191.534 a 191.745 191.745 0 0 0 -191.534 -191.534 Z M 1164.53 653.017 a 23.8843 23.8843 0 0 1 -23.8843 23.8843 H 851.255 a 164.911 164.911 0 0 1 0 -329.803 h 289.408 A 23.8843 23.8843 0 0 1 1164.53 370.983 Z" fill="#ffffff" p-id="75664"></path><path d="M 835.511 453.458 a 58.552 58.552 0 1 0 58.5329 58.552 a 58.6095 58.6095 0 0 0 -58.5329 -58.552 Z m 0 59.6246 a 1.09175 1.09175 0 1 1 1.07259 -1.07259 a 1.09175 1.09175 0 0 1 -1.07259 1.07259 Z" fill="#ffffff" p-id="75665"></path></svg>