<?xml version="1.0" standalone="no"?><!DOCTYPE svg PUBLIC "-//W3C//DTD SVG 1.1//EN" "http://www.w3.org/Graphics/SVG/1.1/DTD/svg11.dtd"><svg t="1683339851376" class="icon" viewBox="0 0 1024 1024" version="1.1" xmlns="http://www.w3.org/2000/svg" p-id="163787" xmlns:xlink="http://www.w3.org/1999/xlink" width="128" height="128"><path d="M806.4 0H217.6C102.4 0 0 102.4 0 217.6v582.4C0 921.6 102.4 1024 217.6 1024h582.4c121.6 0 217.6-102.4 217.6-217.6V217.6C1024 102.4 921.6 0 806.4 0zM608 281.6c19.2 6.4 38.4 19.2 57.6 32l19.2 19.2c19.2 19.2 32 32 44.8 51.2 0 6.4 6.4 6.4 6.4 12.8l-128 128V281.6z m-121.6-19.2H512c19.2 0 44.8 0 64 6.4 6.4 0 12.8 0 12.8 6.4v179.2c0-6.4-166.4-172.8-166.4-172.8 19.2-6.4 38.4-12.8 64-19.2zM320 358.4c0-6.4 6.4-12.8 19.2-19.2 12.8-19.2 32-32 51.2-44.8 6.4 0 6.4-6.4 12.8-6.4l128 128H288c6.4-19.2 12.8-38.4 32-57.6z m-57.6 179.2V512c0-19.2 0-44.8 6.4-64 0-6.4 0-12.8 6.4-12.8h179.2c-6.4 0-172.8 166.4-172.8 166.4-6.4-19.2-12.8-38.4-19.2-64zM364.8 704l-19.2-19.2c-19.2-12.8-32-32-44.8-51.2 0-6.4-6.4-6.4-6.4-12.8l115.2-134.4c0 6.4 19.2 243.2 19.2 243.2-25.6 0-44.8-12.8-64-25.6z m172.8 57.6H512c-19.2 0-44.8 0-64-6.4-6.4 0-12.8 0-12.8-6.4V569.6l172.8 172.8c-25.6 6.4-44.8 12.8-70.4 19.2z m166.4-96l-19.2 19.2c-12.8 12.8-32 25.6-51.2 38.4-6.4 0-6.4 6.4-12.8 6.4l-128-128h243.2c-6.4 32-19.2 51.2-32 64z m44.8-89.6c0 6.4 0 12.8-6.4 12.8H569.6l172.8-172.8c6.4 19.2 12.8 44.8 19.2 64v25.6c0 32-6.4 51.2-12.8 70.4z" fill="#ffffff" p-id="163788"></path></svg>