<?xml version="1.0" standalone="no"?><!DOCTYPE svg PUBLIC "-//W3C//DTD SVG 1.1//EN" "http://www.w3.org/Graphics/SVG/1.1/DTD/svg11.dtd"><svg t="1683446552372" class="icon" viewBox="0 0 1024 1024" version="1.1" xmlns="http://www.w3.org/2000/svg" p-id="8151" xmlns:xlink="http://www.w3.org/1999/xlink" width="128" height="128"><path d="M512 607.5392A203.1104 203.1104 0 1 1 715.1104 404.48 203.3664 203.3664 0 0 1 512 607.5392z m0-360.1408A157.0304 157.0304 0 1 0 669.0304 404.48 157.2352 157.2352 0 0 0 512 247.3984z" fill="#c3c3c3" p-id="8152"></path><path d="M790.272 890.4704a23.04 23.04 0 0 1-23.04-23.04 255.232 255.232 0 0 0-510.464 0 23.04 23.04 0 0 1-46.08 0 301.312 301.312 0 0 1 602.624 0 22.9888 22.9888 0 0 1-23.04 23.04zM741.4784 593.92a23.04 23.04 0 0 1-3.9424-45.7216 126.976 126.976 0 0 0 14.3872-246.6304 23.0912 23.0912 0 0 1 13.2608-44.1856A173.056 173.056 0 0 1 745.472 593.92a21.0432 21.0432 0 0 1-3.9936 0z" fill="#c3c3c3" p-id="8153"></path><path d="M947.2 831.9488a22.9888 22.9888 0 0 1-23.04-23.04 208.7424 208.7424 0 0 0-183.0912-207.1552 23.04 23.04 0 0 1 5.5808-45.7728A254.976 254.976 0 0 1 970.24 808.96a22.9888 22.9888 0 0 1-23.04 22.9888zM282.5216 593.92a21.0432 21.0432 0 0 1-3.9936-0.3584 173.056 173.056 0 0 1-19.712-336.1792 23.0912 23.0912 0 0 1 13.2608 44.1856A126.976 126.976 0 0 0 286.72 548.3008a23.04 23.04 0 0 1-3.9424 45.7216z" fill="#c3c3c3" p-id="8154"></path><path d="M76.8 831.9488a22.9888 22.9888 0 0 1-23.04-23.04 254.976 254.976 0 0 1 223.5904-252.928 23.04 23.04 0 0 1 5.5808 45.7728A208.7424 208.7424 0 0 0 99.84 808.96a22.9888 22.9888 0 0 1-23.04 22.9888z" fill="#c3c3c3" p-id="8155"></path></svg>