<?xml version="1.0" standalone="no"?><!DOCTYPE svg PUBLIC "-//W3C//DTD SVG 1.1//EN" "http://www.w3.org/Graphics/SVG/1.1/DTD/svg11.dtd"><svg t="1683339423755" class="icon" viewBox="0 0 1024 1024" version="1.1" xmlns="http://www.w3.org/2000/svg" p-id="98813" xmlns:xlink="http://www.w3.org/1999/xlink" width="128" height="128"><path d="M512.002558 64.275909c-247.368924 0-447.727161 200.358237-447.727161 447.726138 0 247.365854 200.357214 447.722044 447.727161 447.722044 247.362784 0 447.719998-200.356191 447.719998-447.722044C959.722556 264.634146 759.364319 64.275909 512.002558 64.275909L512.002558 64.275909zM356.418061 795.184641 356.418061 795.184641c-12.31549 0-22.387893-10.073426-22.387893-21.267373-4.477988-146.630568 55.963593-231.696989 100.737332-275.349185-17.908882-30.221302-15.669888-68.278059 6.716982-97.381911 29.098735-38.056758 82.826404-43.650149 119.763664-14.551414 36.939307 29.102828 43.656289 83.948971 14.552437 120.888278-26.865881 33.577746-72.759117 42.531676-108.571764 21.268396-38.058804 35.815717-91.785449 110.810758-88.430028 242.888889C377.68134 785.112238 368.726388 795.184641 356.418061 795.184641L356.418061 795.184641zM507.522524 666.463977c-14.552437 0-30.223349-1.121544-44.773739-4.476965-12.30935-2.236947-19.026332-14.550391-16.787338-26.865881 2.234901-12.307304 14.550391-20.144806 25.740244-16.788361 11.19804 2.242064 23.505343 3.361561 34.700313 3.361561 90.666976 0 164.540474-74.995041 164.540474-166.780491 0-91.784426-72.755024-166.775374-163.419953-166.775374-90.663906 0-164.537404 74.989925-164.537404 166.775374 0 17.911952 3.354398 35.81981 8.952906 52.609195 3.354398 11.190877-2.237971 24.623817-13.43294 27.986401-11.190877 4.472871-23.505343-2.242064-27.980261-14.553461-6.715959-21.268396-11.195993-44.772716-11.195993-67.159586 0-115.290793 92.9029-210.43064 208.192669-210.43064 115.290793 0 208.193693 95.14087 208.193693 211.54809C715.716216 571.323107 622.813317 666.463977 507.522524 666.463977L507.522524 666.463977zM507.522524 666.463977" fill="#ffffff" p-id="98814"></path></svg>