<?xml version="1.0" standalone="no"?><!DOCTYPE svg PUBLIC "-//W3C//DTD SVG 1.1//EN" "http://www.w3.org/Graphics/SVG/1.1/DTD/svg11.dtd"><svg t="1683338035902" class="icon" viewBox="0 0 1024 1024" version="1.1" xmlns="http://www.w3.org/2000/svg" p-id="15703" xmlns:xlink="http://www.w3.org/1999/xlink" width="128" height="128"><path d="M893.8496 136.533333H130.1504c-31.470933 0-46.1824 38.980267-22.545067 59.767467l381.8496 335.752533a34.133333 34.133333 0 0 0 45.073067 0l381.8496-335.752533C940.032 175.5136 925.320533 136.533333 893.8496 136.533333z" fill="#ffffff" p-id="15704"></path><path d="M466.909867 603.136L56.6784 242.414933C34.628267 223.010133 0 238.677333 0 268.049067V819.2a68.266667 68.266667 0 0 0 68.266667 68.266667h887.466666a68.266667 68.266667 0 0 0 68.266667-68.266667V268.049067c0-29.371733-34.628267-45.021867-56.6784-25.634134L557.073067 603.136a68.266667 68.266667 0 0 1-90.1632 0z" fill="#ffffff" p-id="15705"></path></svg>